<svg version="1.1" xmlns="http://www.w3.org/2000/svg" viewBox="0 0 611 583.5" width="611" height="583.5">
  <!-- svg-source:excalidraw -->
  
  <defs>
    <style>
      @font-face {
        font-family: "Virgil";
        src: url("https://excalidraw.com/Virgil.woff2");
      }
      @font-face {
        font-family: "Cascadia";
        src: url("https://excalidraw.com/Cascadia.woff2");
      }
    </style>
  </defs>
  <rect x="0" y="0" width="611" height="583.5" fill="#ffffff"></rect><g stroke-linecap="round" transform="translate(126 443.5) rotate(0 177.5 65)"><path d="M0.9 0.87 C139.53 -0.87, 279.03 -1.47, 354.16 0.84 M0.42 -0.1 C76.07 1.44, 152.97 1.31, 355.63 -0.51 M356.89 -1.25 C352.62 28.41, 354.91 58.14, 355.86 128.34 M354.74 0.8 C354.46 50.29, 354.21 100.54, 354 130.12 M355.46 129.45 C246.09 128.79, 135.68 128.05, -0.66 129.33 M355.56 130.22 C268.85 128.15, 181.69 128.07, -0.46 130.02 M0.83 131.86 C-1.84 103.74, 0.2 74.96, -0.11 -0.75 M0.66 130.35 C0.98 79.09, 0.56 29.44, -0.27 -0.35" stroke="#000000" stroke-width="1" fill="none"></path></g><g transform="translate(252.5 496) rotate(0 51 12.5)"><text x="51" y="18" font-family="Virgil, Segoe UI Emoji" font-size="20px" fill="#000000" text-anchor="middle" style="white-space: pre;" direction="ltr">SymSpellEx</text></g><g stroke-linecap="round" transform="translate(77 212.5) rotate(0 71 44.5)"><path d="M0.34 1.4 C46.63 -0.9, 97.01 -0.28, 142.2 0.12 M-0.12 -0.34 C34.19 1.04, 66.91 0.52, 142.7 -0.31 M142.01 -1.44 C140.98 19.19, 144.12 39.85, 141.37 87.56 M142.69 0.81 C143.39 18.24, 142.31 37.67, 142.73 89.69 M142.14 90.84 C113.72 89.65, 83.16 91.85, 1.72 89.4 M141.57 88.36 C93.25 88.98, 45.32 89.75, -0.43 89.41 M0.35 90.3 C0.41 66.17, -0.55 43.2, 0.97 1.85 M-0.62 88.78 C0.17 64.76, 0.52 39.47, -0.74 -0.5" stroke="#000000" stroke-width="1" fill="none"></path></g><g transform="translate(91.5 264.5) rotate(0 56.5 12.5)"><text x="56.5" y="18" font-family="Virgil, Segoe UI Emoji" font-size="20px" fill="#000000" text-anchor="middle" style="white-space: pre;" direction="ltr">DataStore</text></g><g transform="translate(92.5 228.5) rotate(0 55.5 10)"><text x="55.5" y="14" font-family="Virgil, Segoe UI Emoji" font-size="16px" fill="#000000" text-anchor="middle" style="white-space: pre;" direction="ltr">&lt;&lt;Interface&gt;&gt;</text></g><g stroke-linecap="round" transform="translate(376 214) rotate(0 87 44.5)"><path d="M-0.65 -1.28 C37.88 -1.81, 77.46 -0.56, 174.73 -0.67 M0.84 -0.48 C50.92 -1.05, 102.82 -1.42, 174.03 -0.75 M175.64 -1.45 C173.61 28.86, 174.01 54.83, 173.35 90.15 M173.33 0.5 C173.88 31.04, 174.88 62.52, 174.63 88.16 M172.23 90.07 C117.47 90.07, 64.29 91, 1.44 89.05 M173.88 88.04 C103.63 89.83, 35 90.47, 0.89 89.8 M-1.48 88.61 C-1.28 67.2, 0.98 43.71, -0.88 0.9 M0.8 88.15 C-0.26 55.38, 1.16 21.52, -0.99 0.66" stroke="#000000" stroke-width="1" fill="none"></path></g><g transform="translate(397 266) rotate(0 65 12.5)"><text x="65" y="18" font-family="Virgil, Segoe UI Emoji" font-size="20px" fill="#000000" text-anchor="middle" style="white-space: pre;" direction="ltr">EditDistance</text></g><g transform="translate(407.5 230) rotate(0 55.5 10)"><text x="55.5" y="14" font-family="Virgil, Segoe UI Emoji" font-size="16px" fill="#000000" text-anchor="middle" style="white-space: pre;" direction="ltr">&lt;&lt;Interface&gt;&gt;</text></g><g stroke-linecap="round" transform="translate(483 12.75) rotate(0 59 33.5)"><path d="M0.06 1.59 C26.96 0.02, 53.25 1.73, 116.62 -1.85 M-0.91 0.86 C23.8 0.82, 47.57 -0.57, 118.8 -0.34 M117.42 0.33 C118.52 20.88, 116.56 45.05, 119.36 65.88 M117.96 -0.25 C117.57 15.33, 118.45 28.88, 117.96 67.65 M119.22 68.41 C87.03 68.29, 53.36 66.9, 1.15 67.97 M118.8 67.48 C78.54 68.03, 39.44 67.09, -0.79 67.75 M0.56 68.94 C0.86 51.91, 1.16 37.76, -1.62 -1.08 M0.31 67.34 C-0.41 42.89, -0.07 16.46, 0.86 0.8" stroke="#000000" stroke-width="1" fill="none"></path></g><g transform="translate(498.5 26.25) rotate(0 43.5 20)"><text x="43.5" y="14" font-family="Virgil, Segoe UI Emoji" font-size="16px" fill="#000000" text-anchor="middle" style="white-space: pre;" direction="ltr">Damerau</text><text x="43.5" y="34" font-family="Virgil, Segoe UI Emoji" font-size="16px" fill="#000000" text-anchor="middle" style="white-space: pre;" direction="ltr">Levenshtein</text></g><g stroke-linecap="round" transform="translate(330 15) rotate(0 59 33.5)"><path d="M-1.33 -1.12 C47.95 -0.07, 91.34 -0.43, 118.96 -1.67 M-0.92 -0.02 C38.91 -0.17, 79.87 -0.38, 117.35 -0.37 M117.87 0.68 C118.51 21.58, 116.26 40.21, 118.14 68.74 M117.82 0.39 C118.41 13.34, 117.54 26.83, 117.14 67.69 M116.2 68.3 C75.3 66.45, 33.95 66.7, -1.57 66.88 M117.92 67.62 C80.09 65.87, 43.09 66.7, 0.09 66.05 M0.5 67.35 C-0.01 42.16, -0.37 15.18, -1.5 -0.79 M0.54 67.34 C-0.79 40.68, -0.58 15.25, -0.27 -0.84" stroke="#000000" stroke-width="1" fill="none"></path></g><g transform="translate(345.5 38.5) rotate(0 43.5 10)"><text x="43.5" y="14" font-family="Virgil, Segoe UI Emoji" font-size="16px" fill="#000000" text-anchor="middle" style="white-space: pre;" direction="ltr">Levenshtein</text></g><g stroke-linecap="round"><g transform="translate(541.0494101293384 83.17635329887273) rotate(0 -34.07495505772533 61.44440854154527)"><path d="M-0.95 -0.32 C-12.06 20.18, -56.26 102.72, -67.2 123.21" stroke="#000000" stroke-width="1.5" fill="none" stroke-dasharray="8 9"></path></g><g transform="translate(541.0494101293384 83.17635329887273) rotate(0 -34.07495505772533 61.44440854154527)"><path d="M-63.49 91.6 C-64.17 100.2, -66.25 107.45, -65.27 124.35" stroke="#000000" stroke-width="1.5" fill="none"></path></g><g transform="translate(541.0494101293384 83.17635329887273) rotate(0 -34.07495505772533 61.44440854154527)"><path d="M-45.4 101.28 C-50.7 107.27, -57.4 112.05, -65.27 124.35" stroke="#000000" stroke-width="1.5" fill="none"></path></g></g><g stroke-linecap="round"><g transform="translate(385 82.5) rotate(0 35.09984350129969 63.24565123394133)"><path d="M-0.16 -0.6 C11.49 20.45, 58.51 105.85, 70.36 127.09" stroke="#000000" stroke-width="1.5" fill="none" stroke-dasharray="8 9"></path></g><g transform="translate(385 82.5) rotate(0 35.09984350129969 63.24565123394133)"><path d="M46.72 106.32 C54.07 114, 61.42 120.61, 69.56 126" stroke="#000000" stroke-width="1.5" fill="none"></path></g><g transform="translate(385 82.5) rotate(0 35.09984350129969 63.24565123394133)"><path d="M64.68 96.38 C65.96 107.44, 67.16 117.44, 69.56 126" stroke="#000000" stroke-width="1.5" fill="none"></path></g></g><g stroke-linecap="round" transform="translate(179 14) rotate(0 59 33.5)"><path d="M1.27 1.16 C34.63 0.75, 70.62 1.34, 117.11 1.56 M0.28 -0.14 C43.06 -0.8, 86.35 0.16, 118.96 0.56 M117.79 -1.38 C117.57 16.41, 117.26 29.82, 117.54 65.76 M118.91 -0.55 C116.7 21.13, 117.35 41.75, 118.84 66.51 M118.88 65.06 C77.87 67.75, 42.58 67.83, -0.33 66.49 M118.72 66.78 C93.14 68.79, 67.89 68.04, -0.91 67.37 M1.75 68.02 C-0.92 52.39, -0.8 40.56, 1.65 1.06 M-0.09 67.85 C-0.52 52.54, -0.66 39.06, 0.72 0.48" stroke="#000000" stroke-width="1" fill="none"></path></g><g transform="translate(211 37.5) rotate(0 27 10)"><text x="27" y="14" font-family="Virgil, Segoe UI Emoji" font-size="16px" fill="#000000" text-anchor="middle" style="white-space: pre;" direction="ltr">Memory</text></g><g stroke-linecap="round"><g transform="translate(234.32360216304664 82.50001242235302) rotate(0 -38.60018029846253 64.09681291617454)"><path d="M0.32 -1 C-12.67 20.49, -64.57 107.48, -77.52 129.19" stroke="#000000" stroke-width="1.5" fill="none" stroke-dasharray="8 9"></path></g><g transform="translate(234.32360216304664 82.50001242235302) rotate(0 -38.60018029846253 64.09681291617454)"><path d="M-73.55 101.06 C-73.41 111.19, -75.19 120.5, -77.36 129.23" stroke="#000000" stroke-width="1.5" fill="none"></path></g><g transform="translate(234.32360216304664 82.50001242235302) rotate(0 -38.60018029846253 64.09681291617454)"><path d="M-55.93 111.58 C-61.74 118.21, -69.47 123.98, -77.36 129.23" stroke="#000000" stroke-width="1.5" fill="none"></path></g></g><g stroke-linecap="round" transform="translate(10 10) rotate(0 59 33.5)"><path d="M-0.96 -1.54 C42.19 2.18, 87.25 2.64, 116.93 1.26 M-0.67 -0.22 C31.5 -0.1, 63.75 -0.3, 117.23 0.07 M119.64 -1.55 C118.43 23.75, 116.66 49.8, 118.6 65.12 M117.43 -0.12 C117.9 16.42, 117.08 32.75, 118.53 67.99 M117.66 68.06 C79.61 68.17, 44.72 67.2, -1.96 65.12 M117.7 67.85 C83.78 68.85, 51.8 67.69, -0.26 66.66 M-0.35 66.28 C-1.37 43.22, 0.17 22.82, -1.37 1.69 M0.83 66.38 C-0.73 49.03, 0.5 32.18, -0.65 0.32" stroke="#000000" stroke-width="1" fill="none"></path></g><g transform="translate(48.5 33.5) rotate(0 20.5 10)"><text x="20.5" y="14" font-family="Virgil, Segoe UI Emoji" font-size="16px" fill="#000000" text-anchor="middle" style="white-space: pre;" direction="ltr">Redis</text></g><g stroke-linecap="round"><g transform="translate(69 77.5) rotate(0 36.1156629450619 65.4660210840404)"><path d="M0.64 -1.06 C12.54 20.97, 59.87 110.01, 71.59 131.99" stroke="#000000" stroke-width="1.5" fill="none" stroke-dasharray="8 9"></path></g><g transform="translate(69 77.5) rotate(0 36.1156629450619 65.4660210840404)"><path d="M47.52 112.92 C56.27 118.16, 61.35 122.58, 71.26 133.93" stroke="#000000" stroke-width="1.5" fill="none"></path></g><g transform="translate(69 77.5) rotate(0 36.1156629450619 65.4660210840404)"><path d="M65.63 103.28 C68.66 111.65, 68.03 119.11, 71.26 133.93" stroke="#000000" stroke-width="1.5" fill="none"></path></g></g><g stroke-linecap="round"><g transform="translate(312 441.5) rotate(0 73.13607733175161 -66.11111901924014)"><path d="M0.64 1.11 C24.94 -21.1, 121.68 -110.69, 145.63 -133.33" stroke="#000000" stroke-width="1.5" fill="none" stroke-dasharray="8 9"></path></g><g transform="translate(312 441.5) rotate(0 73.13607733175161 -66.11111901924014)"><path d="M133.88 -105.54 C137.06 -115.47, 138.65 -120.63, 146.86 -134.87" stroke="#000000" stroke-width="1.5" fill="none"></path></g><g transform="translate(312 441.5) rotate(0 73.13607733175161 -66.11111901924014)"><path d="M119.87 -120.54 C127.07 -126.24, 132.68 -127.1, 146.86 -134.87" stroke="#000000" stroke-width="1.5" fill="none"></path></g></g><g stroke-linecap="round"><g transform="translate(292 442.5) rotate(0 -71.7984506614506 -68.91187888309358)"><path d="M-0.86 -0.04 C-24.76 -22.92, -119.27 -115.06, -142.74 -137.78" stroke="#000000" stroke-width="1.5" fill="none" stroke-dasharray="8 9"></path></g><g transform="translate(292 442.5) rotate(0 -71.7984506614506 -68.91187888309358)"><path d="M-115.44 -126.73 C-126.31 -129.49, -133.6 -133.34, -141.44 -138.72" stroke="#000000" stroke-width="1.5" fill="none"></path></g><g transform="translate(292 442.5) rotate(0 -71.7984506614506 -68.91187888309358)"><path d="M-129.74 -112.01 C-135.48 -119.88, -137.72 -128.93, -141.44 -138.72" stroke="#000000" stroke-width="1.5" fill="none"></path></g></g></svg>