<svg version="1.1" xmlns="http://www.w3.org/2000/svg" viewBox="0 0 760.5 586.75" width="760.5" height="586.75">
  <!-- svg-source:excalidraw -->
  
  <defs>
    <style>
      @font-face {
        font-family: "Virgil";
        src: url("https://excalidraw.com/Virgil.woff2");
      }
      @font-face {
        font-family: "Cascadia";
        src: url("https://excalidraw.com/Cascadia.woff2");
      }
    </style>
  </defs>
  <rect x="0" y="0" width="760.5" height="586.75" fill="#ffffff"></rect><g stroke-linecap="round" transform="translate(204 446.75) rotate(0 177.5 65)"><path d="M0.9 0.87 C139.53 -0.87, 279.03 -1.47, 354.16 0.84 M0.42 -0.1 C76.07 1.44, 152.97 1.31, 355.63 -0.51 M356.89 -1.25 C352.62 28.41, 354.91 58.14, 355.86 128.34 M354.74 0.8 C354.46 50.29, 354.21 100.54, 354 130.12 M355.46 129.45 C246.09 128.79, 135.68 128.05, -0.66 129.33 M355.56 130.22 C268.85 128.15, 181.69 128.07, -0.46 130.02 M0.83 131.86 C-1.84 103.74, 0.2 74.96, -0.11 -0.75 M0.66 130.35 C0.98 79.09, 0.56 29.44, -0.27 -0.35" stroke="#000000" stroke-width="1" fill="none"></path></g><g transform="translate(330.5 499.25) rotate(0 51 12.5)"><text x="51" y="18" font-family="Virgil, Segoe UI Emoji" font-size="20px" fill="#000000" text-anchor="middle" style="white-space: pre;" direction="ltr">SymSpellEx</text></g><g stroke-linecap="round" transform="translate(75 212.75) rotate(0 71 44.5)"><path d="M0.34 1.4 C46.63 -0.9, 97.01 -0.28, 142.2 0.12 M-0.12 -0.34 C34.19 1.04, 66.91 0.52, 142.7 -0.31 M142.01 -1.44 C140.98 19.19, 144.12 39.85, 141.37 87.56 M142.69 0.81 C143.39 18.24, 142.31 37.67, 142.73 89.69 M142.14 90.84 C113.72 89.65, 83.16 91.85, 1.72 89.4 M141.57 88.36 C93.25 88.98, 45.32 89.75, -0.43 89.41 M0.35 90.3 C0.41 66.17, -0.55 43.2, 0.97 1.85 M-0.62 88.78 C0.17 64.76, 0.52 39.47, -0.74 -0.5" stroke="#000000" stroke-width="1" fill="none"></path></g><g transform="translate(89.5 264.75) rotate(0 56.5 12.5)"><text x="56.5" y="18" font-family="Virgil, Segoe UI Emoji" font-size="20px" fill="#000000" text-anchor="middle" style="white-space: pre;" direction="ltr">DataStore</text></g><g transform="translate(90.5 228.75) rotate(0 55.5 10)"><text x="55.5" y="14" font-family="Virgil, Segoe UI Emoji" font-size="16px" fill="#000000" text-anchor="middle" style="white-space: pre;" direction="ltr">&lt;&lt;Interface&gt;&gt;</text></g><g stroke-linecap="round" transform="translate(272 216.25) rotate(0 87 44.5)"><path d="M-0.65 -1.28 C37.88 -1.81, 77.46 -0.56, 174.73 -0.67 M0.84 -0.48 C50.92 -1.05, 102.82 -1.42, 174.03 -0.75 M175.64 -1.45 C173.61 28.86, 174.01 54.83, 173.35 90.15 M173.33 0.5 C173.88 31.04, 174.88 62.52, 174.63 88.16 M172.23 90.07 C117.47 90.07, 64.29 91, 1.44 89.05 M173.88 88.04 C103.63 89.83, 35 90.47, 0.89 89.8 M-1.48 88.61 C-1.28 67.2, 0.98 43.71, -0.88 0.9 M0.8 88.15 C-0.26 55.38, 1.16 21.52, -0.99 0.66" stroke="#000000" stroke-width="1" fill="none"></path></g><g transform="translate(293 268.25) rotate(0 65 12.5)"><text x="65" y="18" font-family="Virgil, Segoe UI Emoji" font-size="20px" fill="#000000" text-anchor="middle" style="white-space: pre;" direction="ltr">EditDistance</text></g><g transform="translate(303.5 232.25) rotate(0 55.5 10)"><text x="55.5" y="14" font-family="Virgil, Segoe UI Emoji" font-size="16px" fill="#000000" text-anchor="middle" style="white-space: pre;" direction="ltr">&lt;&lt;Interface&gt;&gt;</text></g><g stroke-linecap="round" transform="translate(479 11) rotate(0 59 33.5)"><path d="M0.06 1.59 C26.96 0.02, 53.25 1.73, 116.62 -1.85 M-0.91 0.86 C23.8 0.82, 47.57 -0.57, 118.8 -0.34 M117.42 0.33 C118.52 20.88, 116.56 45.05, 119.36 65.88 M117.96 -0.25 C117.57 15.33, 118.45 28.88, 117.96 67.65 M119.22 68.41 C87.03 68.29, 53.36 66.9, 1.15 67.97 M118.8 67.48 C78.54 68.03, 39.44 67.09, -0.79 67.75 M0.56 68.94 C0.86 51.91, 1.16 37.76, -1.62 -1.08 M0.31 67.34 C-0.41 42.89, -0.07 16.46, 0.86 0.8" stroke="#000000" stroke-width="1" fill="none"></path></g><g transform="translate(494.5 24.5) rotate(0 43.5 20)"><text x="43.5" y="14" font-family="Virgil, Segoe UI Emoji" font-size="16px" fill="#000000" text-anchor="middle" style="white-space: pre;" direction="ltr">Damerau</text><text x="43.5" y="34" font-family="Virgil, Segoe UI Emoji" font-size="16px" fill="#000000" text-anchor="middle" style="white-space: pre;" direction="ltr">Levenshtein</text></g><g stroke-linecap="round" transform="translate(326 13.25) rotate(0 59 33.5)"><path d="M-1.33 -1.12 C47.95 -0.07, 91.34 -0.43, 118.96 -1.67 M-0.92 -0.02 C38.91 -0.17, 79.87 -0.38, 117.35 -0.37 M117.87 0.68 C118.51 21.58, 116.26 40.21, 118.14 68.74 M117.82 0.39 C118.41 13.34, 117.54 26.83, 117.14 67.69 M116.2 68.3 C75.3 66.45, 33.95 66.7, -1.57 66.88 M117.92 67.62 C80.09 65.87, 43.09 66.7, 0.09 66.05 M0.5 67.35 C-0.01 42.16, -0.37 15.18, -1.5 -0.79 M0.54 67.34 C-0.79 40.68, -0.58 15.25, -0.27 -0.84" stroke="#000000" stroke-width="1" fill="none"></path></g><g transform="translate(341.5 36.75) rotate(0 43.5 10)"><text x="43.5" y="14" font-family="Virgil, Segoe UI Emoji" font-size="16px" fill="#000000" text-anchor="middle" style="white-space: pre;" direction="ltr">Levenshtein</text></g><g stroke-linecap="round"><g transform="translate(522.9604096792368 81.42635329887273) rotate(0 -65.97910109961697 63.44440854154527)"><path d="M-0.95 -0.32 C-22.69 20.85, -109.44 106.06, -131.01 127.21" stroke="#000000" stroke-width="1.5" fill="none" stroke-dasharray="8 9"></path></g><g transform="translate(522.9604096792368 81.42635329887273) rotate(0 -65.97910109961697 63.44440854154527)"><path d="M-118.62 98.23 C-121.51 106.09, -125.81 112.67, -129.08 128.35" stroke="#000000" stroke-width="1.5" fill="none"></path></g><g transform="translate(522.9604096792368 81.42635329887273) rotate(0 -65.97910109961697 63.44440854154527)"><path d="M-104.24 112.87 C-110.83 116.89, -118.78 119.73, -129.08 128.35" stroke="#000000" stroke-width="1.5" fill="none"></path></g></g><g stroke-linecap="round"><g transform="translate(368.3225592375636 81.25000000000006) rotate(0 1.8843313106310688 64.9956512339413)"><path d="M-0.16 -0.6 C0.41 21.03, 3.15 108.77, 3.92 130.59" stroke="#000000" stroke-width="1.5" fill="none" stroke-dasharray="8 9"></path></g><g transform="translate(368.3225592375636 81.25000000000006) rotate(0 1.8843313106310688 64.9956512339413)"><path d="M-8.26 101.68 C-4.77 112.13, -1.34 121.52, 3.13 129.5" stroke="#000000" stroke-width="1.5" fill="none"></path></g><g transform="translate(368.3225592375636 81.25000000000006) rotate(0 1.8843313106310688 64.9956512339413)"><path d="M12.25 101.01 C8.74 111.66, 5.16 121.28, 3.13 129.5" stroke="#000000" stroke-width="1.5" fill="none"></path></g></g><g stroke-linecap="round" transform="translate(171 16.25) rotate(0 59 33.5)"><path d="M1.27 1.16 C34.63 0.75, 70.62 1.34, 117.11 1.56 M0.28 -0.14 C43.06 -0.8, 86.35 0.16, 118.96 0.56 M117.79 -1.38 C117.57 16.41, 117.26 29.82, 117.54 65.76 M118.91 -0.55 C116.7 21.13, 117.35 41.75, 118.84 66.51 M118.88 65.06 C77.87 67.75, 42.58 67.83, -0.33 66.49 M118.72 66.78 C93.14 68.79, 67.89 68.04, -0.91 67.37 M1.75 68.02 C-0.92 52.39, -0.8 40.56, 1.65 1.06 M-0.09 67.85 C-0.52 52.54, -0.66 39.06, 0.72 0.48" stroke="#000000" stroke-width="1" fill="none"></path></g><g transform="translate(203 39.75) rotate(0 27 10)"><text x="27" y="14" font-family="Virgil, Segoe UI Emoji" font-size="16px" fill="#000000" text-anchor="middle" style="white-space: pre;" direction="ltr">Memory</text></g><g stroke-linecap="round"><g transform="translate(227.08156937309695 84.75001242235302) rotate(0 -36.42960100203743 63.09681291617454)"><path d="M0.32 -1 C-11.95 20.16, -60.95 105.82, -73.18 127.19" stroke="#000000" stroke-width="1.5" fill="none" stroke-dasharray="8 9"></path></g><g transform="translate(227.08156937309695 84.75001242235302) rotate(0 -36.42960100203743 63.09681291617454)"><path d="M-69.75 98.96 C-69.42 109.13, -71.03 118.47, -73.02 127.23" stroke="#000000" stroke-width="1.5" fill="none"></path></g><g transform="translate(227.08156937309695 84.75001242235302) rotate(0 -36.42960100203743 63.09681291617454)"><path d="M-51.94 109.16 C-57.63 115.93, -65.24 121.84, -73.02 127.23" stroke="#000000" stroke-width="1.5" fill="none"></path></g></g><g stroke-linecap="round" transform="translate(10 16.25) rotate(0 59 33.5)"><path d="M-0.96 -1.54 C42.19 2.18, 87.25 2.64, 116.93 1.26 M-0.67 -0.22 C31.5 -0.1, 63.75 -0.3, 117.23 0.07 M119.64 -1.55 C118.43 23.75, 116.66 49.8, 118.6 65.12 M117.43 -0.12 C117.9 16.42, 117.08 32.75, 118.53 67.99 M117.66 68.06 C79.61 68.17, 44.72 67.2, -1.96 65.12 M117.7 67.85 C83.78 68.85, 51.8 67.69, -0.26 66.66 M-0.35 66.28 C-1.37 43.22, 0.17 22.82, -1.37 1.69 M0.83 66.38 C-0.73 49.03, 0.5 32.18, -0.65 0.32" stroke="#000000" stroke-width="1" fill="none"></path></g><g transform="translate(48.5 39.75) rotate(0 20.5 10)"><text x="20.5" y="14" font-family="Virgil, Segoe UI Emoji" font-size="16px" fill="#000000" text-anchor="middle" style="white-space: pre;" direction="ltr">Redis</text></g><g stroke-linecap="round"><g transform="translate(69.45719677795512 84.25) rotate(0 34.76323955845612 62.216021084040406)"><path d="M0.64 -1.06 C12.09 19.89, 57.61 104.59, 68.89 125.49" stroke="#000000" stroke-width="1.5" fill="none" stroke-dasharray="8 9"></path></g><g transform="translate(69.45719677795512 84.25) rotate(0 34.76323955845612 62.216021084040406)"><path d="M44.72 106.53 C53.5 111.73, 58.61 116.12, 68.55 127.43" stroke="#000000" stroke-width="1.5" fill="none"></path></g><g transform="translate(69.45719677795512 84.25) rotate(0 34.76323955845612 62.216021084040406)"><path d="M62.79 96.8 C65.86 105.16, 65.27 112.62, 68.55 127.43" stroke="#000000" stroke-width="1.5" fill="none"></path></g></g><g stroke-linecap="round"><g transform="translate(377.3710141183185 446.8600956685841) rotate(0 2.453782869227666 -67.66616685353219)"><path d="M0.64 1.11 C1.38 -21.62, 3.88 -113.29, 4.26 -136.44" stroke="#000000" stroke-width="1.5" fill="none" stroke-dasharray="8 9"></path></g><g transform="translate(377.3710141183185 446.8600956685841) rotate(0 2.453782869227666 -67.66616685353219)"><path d="M15.73 -106.98 C12.25 -117.26, 7.18 -122.9, 5.49 -137.98" stroke="#000000" stroke-width="1.5" fill="none"></path></g><g transform="translate(377.3710141183185 446.8600956685841) rotate(0 2.453782869227666 -67.66616685353219)"><path d="M-4.79 -107.45 C-2.38 -117.71, -1.56 -123.21, 5.49 -137.98" stroke="#000000" stroke-width="1.5" fill="none"></path></g></g><g stroke-linecap="round"><g transform="translate(373.6809436704816 442.70951318815355) rotate(0 -108.3720906456191 -68.89163547717035)"><path d="M-0.86 -0.04 C-36.95 -22.91, -180.23 -115.03, -215.89 -137.74" stroke="#000000" stroke-width="1.5" fill="none" stroke-dasharray="8 9"></path></g><g transform="translate(373.6809436704816 442.70951318815355) rotate(0 -108.3720906456191 -68.89163547717035)"><path d="M-186.68 -132.42 C-198.25 -133.17, -206.22 -134.99, -214.59 -138.68" stroke="#000000" stroke-width="1.5" fill="none"></path></g><g transform="translate(373.6809436704816 442.70951318815355) rotate(0 -108.3720906456191 -68.89163547717035)"><path d="M-197.74 -115.13 C-205.32 -121.92, -209.38 -129.86, -214.59 -138.68" stroke="#000000" stroke-width="1.5" fill="none"></path></g></g><g stroke-linecap="round" transform="translate(504.5 216) rotate(0 87 44.5)"><path d="M-0.65 -0.21 C51.51 1.01, 99.5 0.12, 174.44 0.71 M0.27 -0.85 C58.58 0.49, 117.96 -0.78, 174.6 0.69 M174.29 1.53 C175.41 36.83, 174.75 71.94, 174.21 88.76 M174.2 0.53 C175.27 31.7, 174.31 63.92, 174.8 89.95 M175.49 87.81 C117.97 89.32, 62.44 91.49, 1.86 87.56 M174.78 88.92 C129.82 91.25, 85.22 90.2, 0.36 89.68 M1.16 88.58 C-0.49 53.66, 1.47 16.43, 0.56 0.71 M-0.94 89.53 C0.08 56.38, -0.94 25.29, 0.29 -0.17" stroke="#000000" stroke-width="1" fill="none"></path></g><g transform="translate(544 268) rotate(0 46.5 12.5)"><text x="46.5" y="18" font-family="Virgil, Segoe UI Emoji" font-size="20px" fill="#000000" text-anchor="middle" style="white-space: pre;" direction="ltr">Tokenizer</text></g><g transform="translate(536 232) rotate(0 55.5 10)"><text x="55.5" y="14" font-family="Virgil, Segoe UI Emoji" font-size="16px" fill="#000000" text-anchor="middle" style="white-space: pre;" direction="ltr">&lt;&lt;Interface&gt;&gt;</text></g><g stroke-linecap="round" transform="translate(632.5 10) rotate(0 59 33.5)"><path d="M-1.18 -0.05 C34.11 -0.24, 66.89 0.13, 116.27 -0.32 M-0.16 0.73 C26.32 -0.73, 51.5 0.36, 118.53 -0.6 M118.38 -0.92 C118.85 16.67, 119.99 33.71, 119.58 66.62 M117.7 -0.52 C117.43 26.1, 118.82 52.22, 118.85 67.17 M117.37 68.29 C73.54 66.16, 29.83 66.35, -1.96 68.62 M118.07 66.32 C75.73 66.39, 30.74 66.31, -0.86 66.29 M1.42 67.98 C0.1 44.69, 2.01 22.51, 1.02 0.96 M-0.4 66.92 C0.36 45.63, 0.18 23.33, 0.63 0.56" stroke="#000000" stroke-width="1" fill="none"></path></g><g transform="translate(654.5 23.5) rotate(0 37 20)"><text x="37" y="14" font-family="Virgil, Segoe UI Emoji" font-size="16px" fill="#000000" text-anchor="middle" style="white-space: pre;" direction="ltr">Core</text><text x="37" y="34" font-family="Virgil, Segoe UI Emoji" font-size="16px" fill="#000000" text-anchor="middle" style="white-space: pre;" direction="ltr">Tokenizer</text></g><g stroke-linecap="round"><g transform="translate(691.5 80.5) rotate(0 -49.43435499519114 66.55002713054418)"><path d="M0.84 -0.22 C-15.85 21.96, -82.97 110.79, -99.71 133.32" stroke="#000000" stroke-width="1.5" fill="none" stroke-dasharray="8 9"></path></g><g transform="translate(691.5 80.5) rotate(0 -49.43435499519114 66.55002713054418)"><path d="M-91.36 103.43 C-94.99 113.3, -95.14 125.05, -100.97 132.14" stroke="#000000" stroke-width="1.5" fill="none"></path></g><g transform="translate(691.5 80.5) rotate(0 -49.43435499519114 66.55002713054418)"><path d="M-74.94 115.75 C-84.08 121.61, -89.71 129.26, -100.97 132.14" stroke="#000000" stroke-width="1.5" fill="none"></path></g></g><g stroke-linecap="round"><g transform="translate(382.5 445.5) rotate(0 99.96241777092212 -67.6317798152566)"><path d="M-1.06 0.29 C32.4 -22.5, 167.32 -112.64, 200.99 -135.56" stroke="#000000" stroke-width="1.5" fill="none" stroke-dasharray="8 9"></path></g><g transform="translate(382.5 445.5) rotate(0 99.96241777092212 -67.6317798152566)"><path d="M183.82 -111.32 C189.41 -118.92, 192.28 -125.11, 199.94 -137.43" stroke="#000000" stroke-width="1.5" fill="none"></path></g><g transform="translate(382.5 445.5) rotate(0 99.96241777092212 -67.6317798152566)"><path d="M172.36 -128.34 C181.74 -130.47, 188.23 -131.28, 199.94 -137.43" stroke="#000000" stroke-width="1.5" fill="none"></path></g></g></svg>